<svg width="48" height="48" viewBox="0 0 48 48" fill="none" xmlns="http://www.w3.org/2000/svg">
<circle cx="24" cy="24" r="24" fill="white"/>
<path d="M14 32.375V21.125C14 20.7292 14.0887 20.3542 14.2662 20C14.4437 19.6458 14.6883 19.3542 15 19.125L22.5 13.5C22.9375 13.1667 23.4375 13 24 13C24.5625 13 25.0625 13.1667 25.5 13.5L33 19.125C33.3125 19.3542 33.5575 19.6458 33.735 20C33.9125 20.3542 34.0008 20.7292 34 21.125V32.375C34 33.0625 33.755 33.6513 33.265 34.1413C32.775 34.6313 32.1867 34.8758 31.5 34.875H27.75C27.3958 34.875 27.0992 34.755 26.86 34.515C26.6208 34.275 26.5008 33.9783 26.5 33.625V27.375C26.5 27.0208 26.38 26.7242 26.14 26.485C25.9 26.2458 25.6033 26.1258 25.25 26.125H22.75C22.3958 26.125 22.0992 26.245 21.86 26.485C21.6208 26.725 21.5008 27.0217 21.5 27.375V33.625C21.5 33.9792 21.38 34.2763 21.14 34.5163C20.9 34.7563 20.6033 34.8758 20.25 34.875H16.5C15.8125 34.875 15.2242 34.6304 14.735 34.1413C14.2458 33.6521 14.0008 33.0633 14 32.375Z" fill="#67AE6E"/>
</svg>
