<svg width="60" height="21" viewBox="0 0 60 21" fill="none" xmlns="http://www.w3.org/2000/svg">
<path d="M3 0.5C2.33696 0.5 1.70107 0.763392 1.23223 1.23223C0.763392 1.70107 0.5 2.33696 0.5 3V18C0.5 18.663 0.763392 19.2989 1.23223 19.7678C1.70107 20.2366 2.33696 20.5 3 20.5H16.25C16.4489 20.5 16.6397 20.421 16.7803 20.2803C16.921 20.1397 17 19.9489 17 19.75C17 19.5511 16.921 19.3603 16.7803 19.2197C16.6397 19.079 16.4489 19 16.25 19H3C2.73478 19 2.48043 18.8946 2.29289 18.7071C2.10536 18.5196 2 18.2652 2 18H16.25C16.4489 18 16.6397 17.921 16.7803 17.7803C16.921 17.6397 17 17.4489 17 17.25V3C17 2.6717 16.9353 2.34661 16.8097 2.04329C16.6841 1.73998 16.4999 1.46438 16.2678 1.23223C16.0356 1.00009 15.76 0.815938 15.4567 0.690301C15.1534 0.564664 14.8283 0.5 14.5 0.5H3ZM15.5 16.5H2V3C2 2.73478 2.10536 2.48043 2.29289 2.29289C2.48043 2.10536 2.73478 2 3 2H14.5C14.7652 2 15.0196 2.10536 15.2071 2.29289C15.3946 2.48043 15.5 2.73478 15.5 3V16.5Z" fill="black"/>
<path d="M7.645 15C7.085 15 6.635 14.955 6.295 14.865C5.955 14.775 5.69 14.65 5.5 14.49C5.32 14.32 5.195 14.115 5.125 13.875C5.065 13.635 5.02 13.365 4.99 13.065C4.96 12.715 4.935 12.255 4.915 11.685C4.905 11.105 4.9 10.505 4.9 9.885C4.9 9.585 4.9 9.27 4.9 8.94C4.91 8.6 4.915 8.27 4.915 7.95C4.925 7.62 4.935 7.315 4.945 7.035C4.955 6.755 4.97 6.515 4.99 6.315C5.02 6.005 5.07 5.725 5.14 5.475C5.21 5.225 5.34 5.01 5.53 4.83C5.73 4.65 6.005 4.515 6.355 4.425C6.715 4.325 7.19 4.275 7.78 4.275C9.12 4.275 10.12 4.525 10.78 5.025C11.45 5.515 11.785 6.215 11.785 7.125C11.785 7.595 11.68 8.03 11.47 8.43C11.27 8.83 10.92 9.13 10.42 9.33C10.7 9.38 10.955 9.485 11.185 9.645C11.415 9.805 11.61 10 11.77 10.23C11.94 10.45 12.065 10.7 12.145 10.98C12.235 11.25 12.28 11.525 12.28 11.805C12.28 12.165 12.205 12.535 12.055 12.915C11.905 13.285 11.65 13.625 11.29 13.935C10.93 14.245 10.45 14.5 9.85 14.7C9.26 14.9 8.525 15 7.645 15ZM10.78 11.76C10.78 11.4 10.695 11.11 10.525 10.89C10.365 10.67 10.155 10.505 9.895 10.395C9.635 10.275 9.345 10.195 9.025 10.155C8.705 10.115 8.385 10.095 8.065 10.095C7.815 10.095 7.555 10.095 7.285 10.095C7.015 10.095 6.765 10.1 6.535 10.11C6.525 10.32 6.515 10.535 6.505 10.755C6.495 10.975 6.485 11.185 6.475 11.385C6.475 11.575 6.475 11.745 6.475 11.895C6.475 12.035 6.475 12.135 6.475 12.195C6.475 12.465 6.495 12.69 6.535 12.87C6.575 13.05 6.65 13.195 6.76 13.305C6.87 13.415 7.025 13.495 7.225 13.545C7.435 13.585 7.7 13.605 8.02 13.605C8.9 13.605 9.58 13.45 10.06 13.14C10.54 12.83 10.78 12.37 10.78 11.76ZM8.005 5.7C7.675 5.7 7.405 5.73 7.195 5.79C6.995 5.84 6.84 5.91 6.73 6C6.63 6.09 6.56 6.2 6.52 6.33C6.49 6.46 6.475 6.6 6.475 6.75V8.85C6.615 8.86 6.76 8.865 6.91 8.865C7.07 8.865 7.22 8.865 7.36 8.865C7.72 8.865 8.07 8.84 8.41 8.79C8.76 8.74 9.075 8.655 9.355 8.535C9.635 8.415 9.86 8.25 10.03 8.04C10.2 7.83 10.285 7.56 10.285 7.23C10.285 6.78 10.1 6.415 9.73 6.135C9.37 5.845 8.795 5.7 8.005 5.7Z" fill="black"/>
<path d="M25.065 15.06C24.905 15.06 24.775 15.035 24.675 14.985C24.585 14.925 24.515 14.85 24.465 14.76C24.415 14.67 24.38 14.565 24.36 14.445C24.34 14.315 24.325 14.18 24.315 14.04C24.065 14.35 23.74 14.61 23.34 14.82C22.95 15.03 22.45 15.135 21.84 15.135C21.45 15.135 21.05 15.08 20.64 14.97C20.24 14.85 19.875 14.65 19.545 14.37C19.215 14.08 18.945 13.695 18.735 13.215C18.525 12.735 18.42 12.13 18.42 11.4C18.42 10.83 18.49 10.295 18.63 9.795C18.77 9.295 18.98 8.86 19.26 8.49C19.55 8.11 19.91 7.81 20.34 7.59C20.77 7.37 21.275 7.26 21.855 7.26C22.365 7.26 22.82 7.355 23.22 7.545C23.62 7.725 23.98 8.025 24.3 8.445C24.3 8.325 24.305 8.205 24.315 8.085C24.325 7.955 24.35 7.84 24.39 7.74C24.44 7.63 24.515 7.545 24.615 7.485C24.715 7.415 24.85 7.38 25.02 7.38C25.17 7.38 25.31 7.44 25.44 7.56C25.57 7.68 25.645 7.94 25.665 8.34C25.695 8.87 25.715 9.345 25.725 9.765C25.745 10.185 25.755 10.62 25.755 11.07C25.755 11.62 25.75 12.125 25.74 12.585C25.73 13.045 25.705 13.535 25.665 14.055C25.645 14.285 25.615 14.47 25.575 14.61C25.545 14.74 25.505 14.84 25.455 14.91C25.405 14.97 25.345 15.01 25.275 15.03C25.205 15.05 25.135 15.06 25.065 15.06ZM24.255 11.25C24.255 10.73 24.175 10.305 24.015 9.975C23.865 9.645 23.67 9.39 23.43 9.21C23.2 9.02 22.95 8.89 22.68 8.82C22.41 8.75 22.16 8.715 21.93 8.715C21.57 8.715 21.26 8.78 21 8.91C20.75 9.04 20.545 9.22 20.385 9.45C20.225 9.67 20.105 9.935 20.025 10.245C19.955 10.545 19.92 10.875 19.92 11.235C19.92 12.115 20.11 12.765 20.49 13.185C20.88 13.605 21.405 13.815 22.065 13.815C22.455 13.815 22.785 13.75 23.055 13.62C23.335 13.48 23.56 13.295 23.73 13.065C23.91 12.835 24.04 12.565 24.12 12.255C24.21 11.935 24.255 11.6 24.255 11.25ZM30.9336 7.35C31.2236 7.35 31.5136 7.375 31.8036 7.425C32.1036 7.475 32.3736 7.545 32.6136 7.635C32.8536 7.725 33.0486 7.835 33.1986 7.965C33.3486 8.095 33.4236 8.245 33.4236 8.415C33.4236 8.855 33.1736 9.075 32.6736 9.075C32.5536 9.075 32.4386 9.06 32.3286 9.03C32.2286 8.99 32.1086 8.955 31.9686 8.925C31.8286 8.885 31.6536 8.85 31.4436 8.82C31.2336 8.78 30.9736 8.76 30.6636 8.76C30.0036 8.76 29.4936 8.985 29.1336 9.435C28.7736 9.885 28.5936 10.47 28.5936 11.19C28.5936 11.98 28.7736 12.615 29.1336 13.095C29.5036 13.575 30.0236 13.815 30.6936 13.815C31.1136 13.815 31.4536 13.78 31.7136 13.71C31.9736 13.64 32.1836 13.56 32.3436 13.47C32.5136 13.38 32.6486 13.3 32.7486 13.23C32.8586 13.16 32.9786 13.125 33.1086 13.125C33.2886 13.125 33.4286 13.165 33.5286 13.245C33.6386 13.315 33.6936 13.465 33.6936 13.695C33.6936 13.935 33.5986 14.145 33.4086 14.325C33.2286 14.505 32.9986 14.655 32.7186 14.775C32.4386 14.895 32.1336 14.985 31.8036 15.045C31.4836 15.105 31.1886 15.135 30.9186 15.135C29.7086 15.135 28.7586 14.8 28.0686 14.13C27.3786 13.46 27.0336 12.51 27.0336 11.28C27.0336 10.75 27.1136 10.25 27.2736 9.78C27.4436 9.3 27.6936 8.88 28.0236 8.52C28.3536 8.16 28.7586 7.875 29.2386 7.665C29.7286 7.455 30.2936 7.35 30.9336 7.35ZM41.1197 15.06C40.9597 15.06 40.8297 15.035 40.7297 14.985C40.6397 14.925 40.5697 14.85 40.5197 14.76C40.4697 14.67 40.4347 14.565 40.4147 14.445C40.3947 14.315 40.3797 14.18 40.3697 14.04C40.1197 14.35 39.7947 14.61 39.3947 14.82C39.0047 15.03 38.5047 15.135 37.8947 15.135C37.5047 15.135 37.1047 15.08 36.6947 14.97C36.2947 14.85 35.9297 14.65 35.5997 14.37C35.2697 14.08 34.9997 13.695 34.7897 13.215C34.5797 12.735 34.4747 12.13 34.4747 11.4C34.4747 10.83 34.5447 10.295 34.6847 9.795C34.8247 9.295 35.0347 8.86 35.3147 8.49C35.6047 8.11 35.9647 7.81 36.3947 7.59C36.8247 7.37 37.3297 7.26 37.9097 7.26C38.4197 7.26 38.8747 7.355 39.2747 7.545C39.6747 7.725 40.0347 8.025 40.3547 8.445C40.3547 8.325 40.3597 8.205 40.3697 8.085C40.3797 7.955 40.4047 7.84 40.4447 7.74C40.4947 7.63 40.5697 7.545 40.6697 7.485C40.7697 7.415 40.9047 7.38 41.0747 7.38C41.2247 7.38 41.3647 7.44 41.4947 7.56C41.6247 7.68 41.6997 7.94 41.7197 8.34C41.7497 8.87 41.7697 9.345 41.7797 9.765C41.7997 10.185 41.8097 10.62 41.8097 11.07C41.8097 11.62 41.8047 12.125 41.7947 12.585C41.7847 13.045 41.7597 13.535 41.7197 14.055C41.6997 14.285 41.6697 14.47 41.6297 14.61C41.5997 14.74 41.5597 14.84 41.5097 14.91C41.4597 14.97 41.3997 15.01 41.3297 15.03C41.2597 15.05 41.1897 15.06 41.1197 15.06ZM40.3097 11.25C40.3097 10.73 40.2297 10.305 40.0697 9.975C39.9197 9.645 39.7247 9.39 39.4847 9.21C39.2547 9.02 39.0047 8.89 38.7347 8.82C38.4647 8.75 38.2147 8.715 37.9847 8.715C37.6247 8.715 37.3147 8.78 37.0547 8.91C36.8047 9.04 36.5997 9.22 36.4397 9.45C36.2797 9.67 36.1597 9.935 36.0797 10.245C36.0097 10.545 35.9747 10.875 35.9747 11.235C35.9747 12.115 36.1647 12.765 36.5447 13.185C36.9347 13.605 37.4597 13.815 38.1197 13.815C38.5097 13.815 38.8397 13.75 39.1097 13.62C39.3897 13.48 39.6147 13.295 39.7847 13.065C39.9647 12.835 40.0947 12.565 40.1747 12.255C40.2647 11.935 40.3097 11.6 40.3097 11.25ZM43.6283 14.07C43.6083 13.71 43.5933 13.335 43.5833 12.945C43.5833 12.555 43.5783 12.135 43.5683 11.685C43.5583 11.235 43.5533 10.75 43.5533 10.23C43.5533 9.7 43.5533 9.11 43.5533 8.46C43.5533 7.75 43.5583 7.145 43.5683 6.645C43.5783 6.135 43.6033 5.72 43.6433 5.4C43.6933 5.08 43.7683 4.845 43.8683 4.695C43.9683 4.545 44.1083 4.47 44.2883 4.47C44.4583 4.47 44.6083 4.525 44.7383 4.635C44.8683 4.745 44.9433 5 44.9633 5.4C44.9833 5.76 44.9983 6.08 45.0083 6.36C45.0183 6.64 45.0283 6.92 45.0383 7.2C45.0483 7.47 45.0533 7.755 45.0533 8.055C45.0533 8.345 45.0533 8.675 45.0533 9.045V9.825L48.2633 6.15C48.6833 5.67 49.0083 5.355 49.2383 5.205C49.4683 5.045 49.6683 4.965 49.8383 4.965C50.0383 4.965 50.1833 5.015 50.2733 5.115C50.3733 5.215 50.4233 5.34 50.4233 5.49C50.4233 5.55 50.4133 5.61 50.3933 5.67C50.3733 5.73 50.3283 5.815 50.2583 5.925C50.1983 6.025 50.1033 6.155 49.9733 6.315C49.8433 6.465 49.6683 6.66 49.4483 6.9L47.3633 9.165L50.6483 13.845C50.7283 13.955 50.7883 14.07 50.8283 14.19C50.8783 14.31 50.9033 14.425 50.9033 14.535C50.9033 14.725 50.8483 14.88 50.7383 15C50.6383 15.13 50.4583 15.195 50.1983 15.195C49.9883 15.195 49.7983 15.135 49.6283 15.015C49.4683 14.905 49.3183 14.74 49.1783 14.52L46.3283 10.305L45.0383 11.715C45.0283 12.095 45.0183 12.475 45.0083 12.855C44.9983 13.235 44.9833 13.635 44.9633 14.055C44.9533 14.295 44.9283 14.48 44.8883 14.61C44.8583 14.74 44.8133 14.84 44.7533 14.91C44.6933 14.98 44.6233 15.02 44.5433 15.03C44.4733 15.05 44.3883 15.06 44.2883 15.06C44.1083 15.06 43.9583 15 43.8383 14.88C43.7183 14.75 43.6483 14.48 43.6283 14.07ZM53.15 8.205C53.17 8.465 53.175 8.78 53.165 9.15C53.165 9.52 53.17 9.91 53.18 10.32C53.2 10.72 53.235 11.125 53.285 11.535C53.335 11.935 53.42 12.295 53.54 12.615C53.67 12.935 53.845 13.195 54.065 13.395C54.295 13.595 54.59 13.695 54.95 13.695C55.31 13.695 55.6 13.595 55.82 13.395C56.05 13.195 56.225 12.935 56.345 12.615C56.475 12.295 56.565 11.935 56.615 11.535C56.665 11.125 56.695 10.72 56.705 10.32C56.725 9.91 56.73 9.52 56.72 9.15C56.72 8.78 56.73 8.465 56.75 8.205C56.79 7.585 57.045 7.275 57.515 7.275C57.695 7.275 57.835 7.325 57.935 7.425C58.035 7.525 58.105 7.665 58.145 7.845C58.195 8.025 58.225 8.24 58.235 8.49C58.245 8.74 58.25 9.02 58.25 9.33C58.25 9.97 58.215 10.635 58.145 11.325C58.085 12.005 57.94 12.63 57.71 13.2C57.49 13.77 57.16 14.24 56.72 14.61C56.28 14.98 55.69 15.165 54.95 15.165C54.21 15.165 53.62 14.98 53.18 14.61C52.74 14.24 52.405 13.77 52.175 13.2C51.955 12.63 51.81 12.005 51.74 11.325C51.68 10.635 51.65 9.97 51.65 9.33C51.65 9.02 51.655 8.74 51.665 8.49C51.675 8.24 51.7 8.025 51.74 7.845C51.79 7.665 51.865 7.525 51.965 7.425C52.065 7.325 52.205 7.275 52.385 7.275C52.855 7.275 53.11 7.585 53.15 8.205Z" fill="black"/>
</svg>
