<svg width="24" height="24" viewBox="0 0 24 24" fill="none" xmlns="http://www.w3.org/2000/svg">
<path d="M6 1.5C5.33696 1.5 4.70107 1.76339 4.23223 2.23223C3.76339 2.70107 3.5 3.33696 3.5 4V19C3.5 19.663 3.76339 20.2989 4.23223 20.7678C4.70107 21.2366 5.33696 21.5 6 21.5H19.25C19.4489 21.5 19.6397 21.421 19.7803 21.2803C19.921 21.1397 20 20.9489 20 20.75C20 20.5511 19.921 20.3603 19.7803 20.2197C19.6397 20.079 19.4489 20 19.25 20H6C5.73478 20 5.48043 19.8946 5.29289 19.7071C5.10536 19.5196 5 19.2652 5 19H19.25C19.4489 19 19.6397 18.921 19.7803 18.7803C19.921 18.6397 20 18.4489 20 18.25V4C20 3.6717 19.9353 3.34661 19.8097 3.04329C19.6841 2.73998 19.4999 2.46438 19.2678 2.23223C19.0356 2.00009 18.76 1.81594 18.4567 1.6903C18.1534 1.56466 17.8283 1.5 17.5 1.5H6ZM18.5 17.5H5V4C5 3.73478 5.10536 3.48043 5.29289 3.29289C5.48043 3.10536 5.73478 3 6 3H17.5C17.7652 3 18.0196 3.10536 18.2071 3.29289C18.3946 3.48043 18.5 3.73478 18.5 4V17.5Z" fill="black"/>
<path d="M10.645 16C10.085 16 9.635 15.955 9.295 15.865C8.955 15.775 8.69 15.65 8.5 15.49C8.32 15.32 8.195 15.115 8.125 14.875C8.065 14.635 8.02 14.365 7.99 14.065C7.96 13.715 7.935 13.255 7.915 12.685C7.905 12.105 7.9 11.505 7.9 10.885C7.9 10.585 7.9 10.27 7.9 9.94C7.91 9.6 7.915 9.27 7.915 8.95C7.925 8.62 7.935 8.315 7.945 8.035C7.955 7.755 7.97 7.515 7.99 7.315C8.02 7.005 8.07 6.725 8.14 6.475C8.21 6.225 8.34 6.01 8.53 5.83C8.73 5.65 9.005 5.515 9.355 5.425C9.715 5.325 10.19 5.275 10.78 5.275C12.12 5.275 13.12 5.525 13.78 6.025C14.45 6.515 14.785 7.215 14.785 8.125C14.785 8.595 14.68 9.03 14.47 9.43C14.27 9.83 13.92 10.13 13.42 10.33C13.7 10.38 13.955 10.485 14.185 10.645C14.415 10.805 14.61 11 14.77 11.23C14.94 11.45 15.065 11.7 15.145 11.98C15.235 12.25 15.28 12.525 15.28 12.805C15.28 13.165 15.205 13.535 15.055 13.915C14.905 14.285 14.65 14.625 14.29 14.935C13.93 15.245 13.45 15.5 12.85 15.7C12.26 15.9 11.525 16 10.645 16ZM13.78 12.76C13.78 12.4 13.695 12.11 13.525 11.89C13.365 11.67 13.155 11.505 12.895 11.395C12.635 11.275 12.345 11.195 12.025 11.155C11.705 11.115 11.385 11.095 11.065 11.095C10.815 11.095 10.555 11.095 10.285 11.095C10.015 11.095 9.765 11.1 9.535 11.11C9.525 11.32 9.515 11.535 9.505 11.755C9.495 11.975 9.485 12.185 9.475 12.385C9.475 12.575 9.475 12.745 9.475 12.895C9.475 13.035 9.475 13.135 9.475 13.195C9.475 13.465 9.495 13.69 9.535 13.87C9.575 14.05 9.65 14.195 9.76 14.305C9.87 14.415 10.025 14.495 10.225 14.545C10.435 14.585 10.7 14.605 11.02 14.605C11.9 14.605 12.58 14.45 13.06 14.14C13.54 13.83 13.78 13.37 13.78 12.76ZM11.005 6.7C10.675 6.7 10.405 6.73 10.195 6.79C9.995 6.84 9.84 6.91 9.73 7C9.63 7.09 9.56 7.2 9.52 7.33C9.49 7.46 9.475 7.6 9.475 7.75V9.85C9.615 9.86 9.76 9.865 9.91 9.865C10.07 9.865 10.22 9.865 10.36 9.865C10.72 9.865 11.07 9.84 11.41 9.79C11.76 9.74 12.075 9.655 12.355 9.535C12.635 9.415 12.86 9.25 13.03 9.04C13.2 8.83 13.285 8.56 13.285 8.23C13.285 7.78 13.1 7.415 12.73 7.135C12.37 6.845 11.795 6.7 11.005 6.7Z" fill="black"/>
</svg>
